<?xml version="1.0" standalone="no"?><!DOCTYPE svg PUBLIC "-//W3C//DTD SVG 1.1//EN" "http://www.w3.org/Graphics/SVG/1.1/DTD/svg11.dtd"><svg t="1574414074837" class="icon" viewBox="0 0 1024 1024" version="1.1" xmlns="http://www.w3.org/2000/svg" p-id="1961" xmlns:xlink="http://www.w3.org/1999/xlink" width="295" height="295"><defs><style type="text/css"></style></defs><path d="M512.104171 256.052085H192.507833c-18.334079 0-35.001424 7.916989-46.668565 20.417498-0.208342 0.208342-0.416684 0.208342-0.625026 0.416684-0.208342 0.208342-0.208342 0.416684-0.416684 0.625025-10.417091 11.4588-16.875687 26.667752-16.875686 43.335097v382.307222c0 17.084028 6.666938 32.501322 17.500712 44.168464 0.208342 0.208342 0.208342 0.625025 0.416684 0.833368 0 0 0.208342 0 0.208341 0.208341 11.667141 12.083825 28.126144 19.792472 46.251882 19.792472h319.387996l0.416684-512.104171z" fill="#FFB300" p-id="1962"></path><path d="M896.078128 320.846389c0-16.667345-6.458596-31.667955-16.875686-43.335097-0.208342-0.208342-0.208342-0.416684-0.416684-0.625025-0.208342-0.208342-0.416684-0.208342-0.625026-0.416684-11.667141-12.500509-28.334486-20.417497-46.668565-20.417498H511.895829v512.104171h319.596338c18.125738 0 34.584741-7.708647 46.251882-19.792472 0 0 0.208342 0 0.208342-0.208341 0.208342-0.208342 0.208342-0.416684 0.416683-0.833368 10.833774-11.667141 17.500712-27.084435 17.500712-44.168464l0.208342-382.307222z" fill="#FFB300" p-id="1963"></path><path d="M644.609563 491.895015l221.259003-186.674262c2.083418 4.791862 3.541811 10.000407 3.54181 15.625636v382.307222c0 5.000203-1.041709 9.792065-2.916785 14.375585L644.609563 491.895015zM157.506409 717.529196c-1.875076-4.375178-2.916785-9.16704-2.916785-14.375585V320.846389c0-5.625229 1.250051-10.833774 3.54181-15.625636l221.259003 186.674262L157.506409 717.529196zM192.507833 741.280163c-6.041913 0-11.875483-1.666734-17.084028-4.166836l224.38413-227.925941 103.54588 87.295218c2.500102 2.083418 5.416887 3.125127 8.542014 3.125127 3.125127 0 6.041913-1.041709 8.542014-3.125127l103.54588-87.295218 224.384131 227.925941c-5.208545 2.708444-10.833774 4.166836-17.084029 4.166836H192.507833z" fill="#FFD54F" p-id="1964"></path><path d="M192.507833 276.886267c-6.041913 0-11.875483 1.666734-17.084028 4.166836l336.472024 288.345066 336.472025-288.345066c-5.208545-2.708444-10.833774-4.166836-17.084029-4.166836H192.507833z" fill="#FFD54F" p-id="1965"></path></svg>